<?xml version="1.0" encoding="utf-8"?>
<!-- Generator: Adobe Illustrator 22.1.0, SVG Export Plug-In . SVG Version: 6.00 Build 0)  -->
<svg version="1.1" id="Layer_1" xmlns="http://www.w3.org/2000/svg" xmlns:xlink="http://www.w3.org/1999/xlink" x="0px" y="0px"
	 viewBox="0 0 178.1 315.9" style="enable-background:new 0 0 178.1 315.9;" xml:space="preserve">
<style type="text/css">
	.st0{fill:#FFFFFF;}
	.st1{fill:url(#SVGID_1_);}
	.st2{opacity:0.79;fill:#FDFEFF;enable-background:new    ;}
	.st3{opacity:0.39;fill:#FDFEFF;enable-background:new    ;}
</style>
<rect class="st0" width="178.1" height="315.9"/>
<linearGradient id="SVGID_1_" gradientUnits="userSpaceOnUse" x1="89.05" y1="313.4" x2="89.05" y2="-2.5" gradientTransform="matrix(1 0 0 -1 0 313.4)">
	<stop  offset="0" style="stop-color:#FFB05C"/>
	<stop  offset="0.9032" style="stop-color:#F19F91"/>
</linearGradient>
<rect class="st1" width="178.1" height="315.9"/>
<path class="st2" d="M126.9,42.5H86.8c-6.2,0-11.3-5.1-11.3-11.3l0,0c0-6.2,5.1-11.3,11.3-11.3h40.1c6.2,0,11.3,5.1,11.3,11.3l0,0
	C138.2,37.4,133.1,42.5,126.9,42.5z"/>
<path class="st2" d="M60.2,121.1H20.1c-6.2,0-11.3-5.1-11.3-11.3l0,0c0-6.2,5.1-11.3,11.3-11.3h40.1c6.2,0,11.3,5.1,11.3,11.3l0,0
	C71.5,116,66.4,121.1,60.2,121.1z"/>
<path class="st2" d="M85.3,298.6h-40c-6.2,0-11.3-5.1-11.3-11.3l0,0c0-6.2,5.1-11.3,11.3-11.3h40.1c6.2,0,11.3,5.1,11.3,11.3l0,0
	C96.7,293.5,91.6,298.6,85.3,298.6z"/>
<path class="st2" d="M145.6,42.5h-22.4c-3.5,0-6.3-2.9-6.3-6.3l0,0c0-3.5,2.9-6.3,6.3-6.3h22.4c3.5,0,6.3,2.9,6.3,6.3l0,0
	C152,39.7,149.1,42.5,145.6,42.5z"/>
<path class="st2" d="M96.9,48.9H74.5c-3.5,0-6.3-2.9-6.3-6.3l0,0c0-3.5,2.9-6.3,6.3-6.3h22.4c3.5,0,6.3,2.9,6.3,6.3l0,0
	C103.3,46,100.4,48.9,96.9,48.9z"/>
<path class="st2" d="M138.9,180.2H81.6c-8.9,0-16.2-7.3-16.2-16.2l0,0c0-8.9,7.3-16.2,16.2-16.2h57.2c8.9,0,16.2,7.3,16.2,16.2l0,0
	C155,172.9,147.8,180.2,138.9,180.2z"/>
<path class="st2" d="M165.7,180.2h-32c-5,0-9.1-4.1-9.1-9.1l0,0c0-5,4.1-9.1,9.1-9.1h32c5,0,9.1,4.1,9.1,9.1l0,0
	C174.7,176.1,170.6,180.2,165.7,180.2z"/>
<path class="st2" d="M96.1,189.3H64.2c-5,0-9.1-4.1-9.1-9.1l0,0c0-5,4.1-9.1,9.1-9.1h32c5,0,9.1,4.1,9.1,9.1l0,0
	C105.2,185.2,101.1,189.3,96.1,189.3z"/>
<path class="st2" d="M44.2,71.2H21.8c-3.5,0-6.3-2.9-6.3-6.3l0,0c0-3.5,2.9-6.3,6.3-6.3h22.4c3.5,0,6.3,2.9,6.3,6.3l0,0
	C50.6,68.3,47.7,71.2,44.2,71.2z"/>
<path class="st2" d="M66.4,80.1H44c-3.5,0-6.3-2.9-6.3-6.3l0,0c0-3.5,2.9-6.3,6.3-6.3h22.4c3.5,0,6.3,2.9,6.3,6.3l0,0
	C72.8,77.3,69.9,80.1,66.4,80.1z"/>
<path class="st2" d="M157,229.2h-28.1c-1.9,0-3.5-1.6-3.5-3.5l0,0c0-1.9,1.6-3.5,3.5-3.5H157c1.9,0,3.5,1.6,3.5,3.5l0,0
	C160.5,227.6,158.9,229.2,157,229.2z"/>
<path class="st2" d="M130.7,232h-28.1c-1.9,0-3.5-1.6-3.5-3.5l0,0c0-1.9,1.6-3.5,3.5-3.5h28.1c1.9,0,3.5,1.6,3.5,3.5l0,0
	C134.2,230.4,132.6,232,130.7,232z"/>
<path class="st2" d="M129.8,93.4h-22.4c-3.5,0-6.3-2.9-6.3-6.3l0,0c0-3.5,2.9-6.3,6.3-6.3h22.4c3.5,0,6.3,2.9,6.3,6.3l0,0
	C136.2,90.6,133.3,93.4,129.8,93.4z"/>
<path class="st2" d="M60.2,280.8H37.8c-3.5,0-6.3-2.9-6.3-6.3l0,0c0-3.5,2.9-6.3,6.3-6.3h22.4c3.5,0,6.3,2.9,6.3,6.3l0,0
	C66.6,277.9,63.7,280.8,60.2,280.8z"/>
<path class="st3" d="M46.4,198.4H15.7c-1.2,0-2.2-1-2.2-2.2l0,0c0-1.2,1-2.2,2.2-2.2h30.7c1.2,0,2.2,1,2.2,2.2l0,0
	C48.6,197.4,47.6,198.4,46.4,198.4z"/>
<path class="st3" d="M67.7,206.9H37c-1.2,0-2.2-1-2.2-2.2l0,0c0-1.2,1-2.2,2.2-2.2h30.7c1.2,0,2.2,1,2.2,2.2l0,0
	C69.9,205.9,68.9,206.9,67.7,206.9z"/>
<path class="st3" d="M75.4,250H44.6c-1.2,0-2.2-1-2.2-2.2l0,0c0-1.2,1-2.2,2.2-2.2h30.7c1.2,0,2.2,1,2.2,2.2l0,0
	C77.5,249.1,76.6,250,75.4,250z"/>
<path class="st3" d="M155.3,295.9h-30.7c-1.2,0-2.2-1-2.2-2.2l0,0c0-1.2,1-2.2,2.2-2.2h30.7c1.2,0,2.2,1,2.2,2.2l0,0
	C157.5,295,156.5,295.9,155.3,295.9z"/>
<path class="st3" d="M141,132.3h-30.8c-1.2,0-2.2-1-2.2-2.2l0,0c0-1.2,1-2.2,2.2-2.2h30.7c1.2,0,2.2,1,2.2,2.2l0,0
	C143.1,131.3,142.2,132.3,141,132.3z"/>
<path class="st3" d="M48.9,23H18.2C17,23,16,22,16,20.8l0,0c0-1.2,1-2.2,2.2-2.2h30.7c1.2,0,2.2,1,2.2,2.2l0,0
	C51.1,22.1,50.1,23,48.9,23z"/>
<path class="st2" d="M88.7,117.3H66.3c-3.5,0-6.3-2.9-6.3-6.3l0,0c0-3.5,2.9-6.3,6.3-6.3h22.4c3.5,0,6.3,2.9,6.3,6.3l0,0
	C95.1,114.5,92.2,117.3,88.7,117.3z"/>
<path class="st2" d="M78.5,127.4H56.1c-3.5,0-6.3-2.9-6.3-6.3l0,0c0-3.5,2.9-6.3,6.3-6.3h22.4c3.5,0,6.3,2.9,6.3,6.3l0,0
	C84.8,124.6,82,127.4,78.5,127.4z"/>
<path class="st2" d="M42.3,287.3H19.8c-3.5,0-6.3-2.9-6.3-6.3l0,0c0-3.5,2.9-6.3,6.3-6.3h22.4c3.5,0,6.3,2.9,6.3,6.3l0,0
	C48.6,284.4,45.7,287.3,42.3,287.3z"/>
</svg>
