<?xml version="1.0" encoding="utf-8"?>
<!-- Generator: Adobe Illustrator 18.0.0, SVG Export Plug-In . SVG Version: 6.00 Build 0)  -->
<!DOCTYPE svg PUBLIC "-//W3C//DTD SVG 1.1//EN" "http://www.w3.org/Graphics/SVG/1.1/DTD/svg11.dtd">
<svg version="1.1" id="Layer_1" xmlns="http://www.w3.org/2000/svg" xmlns:xlink="http://www.w3.org/1999/xlink" x="0px" y="0px"
	 viewBox="0 0 394.8 381.3" style="enable-background:new 0 0 394.8 381.3;" xml:space="preserve">
<g>
	<g>
		<path style="fill-rule:evenodd;clip-rule:evenodd;fill:#666666;" d="M135.8,313.5l66.8-92.5C373.3,345.6,303.4,435.8,135.8,313.5z
			"/>
		<g>
			<path style="fill-rule:evenodd;clip-rule:evenodd;fill:#7D7B7E;" d="M205.4,301.8l-82.1-58.1c-14.8-10.5-29.9-20.7-44.8-31.1
				c3-4.3,6-8.5,9-12.8c14.8,10.5,29.6,21.1,44.4,31.7l81.8,58.8C223.5,297.3,215.3,308.4,205.4,301.8z"/>
			<path style="fill-rule:evenodd;clip-rule:evenodd;fill:#FFB217;" d="M30,168.7L30,168.7c-3.2,4.5-4.5,9.6-4,14.3
				c0.5,4.6,2.7,8.7,6.6,11.2c14.2,9.2,28.4,18.4,42.5,27.6c14.2,9.2,28.4,18.4,42.6,27.6c3-4.3,6-8.5,9.1-12.8c3-4.3,6-8.5,9-12.8
				c-13.5-10.2-27-20.4-40.4-30.6c-13.5-10.2-26.9-20.4-40.4-30.6c-3.7-2.8-8.3-3.5-12.8-2.4C37.5,161.2,33.1,164.2,30,168.7z"/>
			<path style="fill-rule:evenodd;clip-rule:evenodd;fill:#FFC654;" d="M142.9,224.9c-3.6,5.1-7.2,10.2-10.8,15.3
				c-3.6,5.1-7.2,10.2-10.8,15.3c-1.9,2.7-6,3.4-9.1,1.5l0,0c-3.1-1.9-4-5.7-2-8.5c3.7-5.3,7.5-10.5,11.2-15.8
				c3.7-5.3,7.5-10.5,11.2-15.8c2-2.8,5.9-3.2,8.7-1l0,0C144,218.2,144.8,222.2,142.9,224.9z"/>
		</g>
	</g>
</g>
<g>
	<g>
		<g>
			<polygon style="fill:#94DCF2;" points="215.6,12.4 203.2,183.7 285.7,204.9 347.7,39.7 			"/>
			<path style="fill:#94DCF2;" d="M334.4,52l18.9-2.5l14.3,7.6c0,0-19.7,92.4-21.1,92c-1.4-0.4-28.3,10.5-28.3,10.5l2.8-20.4
				l18.7-9.5l9.5-62l-26.3,10.5L334.4,52z"/>
		</g>
		<path style="fill:#54AFD3;" d="M219.7,48.2l-10.2,126.3l71.7,17.9l49.3-127.1c0,0-37.9-9.7-65.4-7.9c-27.5,1.8-30.9-9.9-37.8-13.6
			C220.3,40,219.7,48.2,219.7,48.2z"/>
		<path style="fill:#FFFFFF;" d="M246.9,83.7l-30.8-5c-0.8-0.1-1.3-0.8-1.2-1.6l0,0c0.1-0.8,0.8-1.3,1.6-1.2l30.8,5
			c0.8,0.1,1.3,0.8,1.2,1.6v0C248.4,83.3,247.6,83.8,246.9,83.7z"/>
		<path style="fill:#FFFFFF;" d="M243.4,108.7l-30.8-5c-0.8-0.1-1.3-0.8-1.2-1.6l0,0c0.1-0.8,0.8-1.3,1.6-1.2l30.8,5
			c0.8,0.1,1.3,0.8,1.2,1.6l0,0C244.9,108.3,244.1,108.8,243.4,108.7z"/>
		<path style="fill:#FFFFFF;" d="M235.1,90.9l-20.8-3.4c-0.5-0.1-0.9-0.6-0.8-1.1l0,0c0.1-0.5,0.6-0.9,1.1-0.8l20.8,3.4
			c0.5,0.1,0.9,0.6,0.8,1.1v0C236.1,90.6,235.6,91,235.1,90.9z"/>
		<path style="fill:#FFFFFF;" d="M232.4,120.4l-20.8-3.4c-0.5-0.1-0.9-0.6-0.8-1.1v0c0.1-0.5,0.6-0.9,1.1-0.8l20.8,3.4
			c0.5,0.1,0.9,0.6,0.8,1.1l0,0C233.4,120.1,232.9,120.4,232.4,120.4z"/>
		<path style="fill:#FFFFFF;" d="M241.5,133.8l-30.8-5c-0.8-0.1-1.3-0.8-1.2-1.6v0c0.1-0.8,0.8-1.3,1.6-1.2l30.8,5
			c0.8,0.1,1.3,0.8,1.2,1.6l0,0C242.9,133.4,242.2,133.9,241.5,133.8z"/>
		<path style="fill:#FFFFFF;" d="M230.5,145.4l-20.8-3.4c-0.5-0.1-0.9-0.6-0.8-1.1l0,0c0.1-0.5,0.6-0.9,1.1-0.8l20.8,3.4
			c0.5,0.1,0.9,0.6,0.8,1.1l0,0C231.5,145.1,231,145.5,230.5,145.4z"/>
	</g>
</g>
</svg>
