<svg id="Layer_1" data-name="Layer 1" xmlns="http://www.w3.org/2000/svg" viewBox="0 0 467.04 156.82"><defs><style>.cls-1{fill:#fff;fill-opacity:0}.cls-2{fill:#7fc34e;}.cls-3{fill:#3c4c54;}.cls-4{fill:#ee1e39;}</style></defs><title>huertito web</title><rect class="cls-1" x="318.04" y="71.57" width="156.82" height="467.04" rx="17.4" ry="17.4" transform="translate(538.61 -318.04) rotate(90)"/><path class="cls-2" d="M304.77,268.62c-4.27-4.08-11.68,1.45-16.47,7.64V242.91c0-2-6.26-2-6.26,0V264.7c-3.56-8.76-12.06-18.55-19.48-9.17-5.89,7.44,13.63,20.66,19.48,19.24v58.84c0,2,6.26,2,6.26,0V288.23C297.33,287.73,315.34,278.69,304.77,268.62Z" transform="translate(-162.93 -226.68)"/><path class="cls-3" d="M191.76,316.86A25.47,25.47,0,0,1,213,306.31a28.59,28.59,0,0,1,21.42,9,30.86,30.86,0,0,1,8.71,22.18v29.75h-8.93V337.53a22.17,22.17,0,0,0-6.17-16,21.09,21.09,0,0,0-30.13,0,22.17,22.17,0,0,0-6.17,16v29.75h-8.93V289.92h8.93Z" transform="translate(-162.93 -226.68)"/><path class="cls-3" d="M373.62,364.68a30.38,30.38,0,0,1-15.42,4.11,31.24,31.24,0,0,1,0-62.48A31.24,31.24,0,0,1,385,321.52l2.33,3.89L341.27,352q.54.65,1.19,1.3a21.46,21.46,0,0,0,15.74,6.55,21.78,21.78,0,0,0,11-2.92,22.15,22.15,0,0,0,8.17-8l7.63,4.54A30.49,30.49,0,0,1,373.62,364.68Zm-36.68-20.45,37.76-21.8a23.31,23.31,0,0,0-5.46-4.33,22.09,22.09,0,0,0-11-2.87,22.35,22.35,0,0,0-22.29,22.29A22.09,22.09,0,0,0,336.94,344.23Z" transform="translate(-162.93 -226.68)"/><path class="cls-3" d="M440,321.3a19.8,19.8,0,0,0-28.62,0q-5.84,6.33-5.84,16.17v29.81h-8.93v-59.5h8.93v8.6q7.3-10.12,20.18-10.12a27.18,27.18,0,0,1,20.88,9,29.71,29.71,0,0,1,5.19,7.74l-7.79,4.49A21.59,21.59,0,0,0,440,321.3Z" transform="translate(-162.93 -226.68)"/><path class="cls-3" d="M473.59,289.92v17.85H484v8.66H473.59v50.85h-8.93V316.43H454.27v-8.66h10.39V289.92Z" transform="translate(-162.93 -226.68)"/><path class="cls-3" d="M502.15,307.78v59.5h-8.93v-59.5Z" transform="translate(-162.93 -226.68)"/><path class="cls-3" d="M530.65,289.92v17.85H541.1v8.66H530.65v50.85h-8.93V316.43H511.34v-8.66h10.39V289.92Z" transform="translate(-162.93 -226.68)"/><path class="cls-4" d="M547.59,337.53a31.3,31.3,0,1,1,9.14,22.07A30.07,30.07,0,0,1,547.59,337.53Z" transform="translate(-162.93 -226.68)"/><path class="cls-2" d="M305.77,307.78v29.75a22.24,22.24,0,0,1-6.17,16,20.68,20.68,0,0,1-29.74,0,22.24,22.24,0,0,1-6.17-16V307.78h-8.93v29.75a30.86,30.86,0,0,0,8.71,22.18,29.42,29.42,0,0,0,42.51,0,30.86,30.86,0,0,0,8.71-22.18V307.78Z" transform="translate(-162.93 -226.68)"/><circle class="cls-3" cx="334.76" cy="67.86" r="6.28"/><circle class="cls-2" cx="415.9" cy="67.86" r="6.28"/></svg>
