<?xml version="1.0" encoding="UTF-8" standalone="no"?>
<svg
   xmlns:dc="http://purl.org/dc/elements/1.1/"
   xmlns:cc="http://creativecommons.org/ns#"
   xmlns:rdf="http://www.w3.org/1999/02/22-rdf-syntax-ns#"
   xmlns:svg="http://www.w3.org/2000/svg"
   xmlns="http://www.w3.org/2000/svg"
   xmlns:sodipodi="http://sodipodi.sourceforge.net/DTD/sodipodi-0.dtd"
   xmlns:inkscape="http://www.inkscape.org/namespaces/inkscape"
   id="Layer_1"
   data-name="Layer 1"
   viewBox="0 0 467.04 156.82"
   version="1.1"
   sodipodi:docname="huertito-logo-web.svg"
   inkscape:version="0.92.2 5c3e80d, 2017-08-06">
  <metadata
     id="metadata175">
    <rdf:RDF>
      <cc:Work
         rdf:about="">
        <dc:format>image/svg+xml</dc:format>
        <dc:type
           rdf:resource="http://purl.org/dc/dcmitype/StillImage" />
        <dc:title>huertito web</dc:title>
      </cc:Work>
    </rdf:RDF>
  </metadata>
  <sodipodi:namedview
     pagecolor="#ffffff"
     bordercolor="#666666"
     borderopacity="1"
     objecttolerance="10"
     gridtolerance="10"
     guidetolerance="10"
     inkscape:pageopacity="0"
     inkscape:pageshadow="2"
     inkscape:window-width="1440"
     inkscape:window-height="851"
     id="namedview173"
     showgrid="false"
     inkscape:zoom="88.751025"
     inkscape:cx="122.4777"
     inkscape:cy="69.006703"
     inkscape:window-x="0"
     inkscape:window-y="1"
     inkscape:window-maximized="1"
     inkscape:current-layer="Layer_1" />
  <defs
     id="defs144">
    <style
       id="style142">.cls-1{fill:#fff;}.cls-2{fill:#7fc34e;}.cls-3{fill:#3c4c54;}.cls-4{fill:#ee1e39;}</style>
  </defs>
  <title
     id="title146">huertito web</title>
  <rect
     class="cls-1"
     x="318.04"
     y="71.57"
     width="156.82"
     height="467.04"
     rx="17.4"
     ry="17.4"
     transform="translate(538.61 -318.04) rotate(90)"
     id="rect148" />
  <path
     class="cls-2"
     d="       m 304.77,268.62
            c -4.27,-4.08
              -11.68,1.45
              -16.47,7.64
            l 0, -33.35
            c 0,-2
             -6.26,-2
             -6.26,0
            l 0,21.79
            c -3.56,-8.76
              -12.06,-18.55
              -19.48,-9.17
              -5.89,7.44
              13.63,20.66
              19.48,19.24
            V 333.61
            c 0,2
              6.26,2
              6.26,0
            v -45.38
            c 9.03,-0.5
              27.04,-9.54
              16.47,-19.61 z"
     transform="translate(-162.93,-226.68)"
     id="path150"
     inkscape:connector-curvature="0"
     style="fill:#7fc34e"
     sodipodi:nodetypes="ccsscccsscc">
     <animate attributeName="d" dur="3s" repeatCount="1"
     values="
     m 290.97143,311.51194
     c -1.5789,-2.28593
       -3.23036,-0.26264
       -4.67143,2.57843
     l -0.15774,0.15142
     c -0.40001,0.38397
       -1.25791,0.41686
       -1.68536,0
     l -0.4169,-0.40657
     c -1.46692,-3.01898
       -3.27552,-3.69285
       -4.35648,-2.44596
       -1.34502,1.45977
       1.7358,4.57461
       4.35648,4.11145
     V 333.61
     c 0,2
       2.26,2
       2.26,0
     v -17.94911
     c 2.87036,-0.14119
       5.79267,-1.97285
       4.67143,-4.14895 z;
       m 304.77,268.62
       c -4.27,-4.08
         -11.68,1.45
         -16.47,7.64
       l 0, -33.35
       c 0,-2
        -6.26,-2
        -6.26,0
       l 0,21.79
       c -3.56,-8.76
         -12.06,-18.55
         -19.48,-9.17
         -5.89,7.44
         13.63,20.66
         19.48,19.24
       V 333.61
       c 0,2
         6.26,2
         6.26,0
       v -45.38
       c 9.03,-0.5
         27.04,-9.54
         16.47,-19.61 z


     " />
   </path>
  <path
     class="cls-3"
     d="M191.76,316.86A25.47,25.47,0,0,1,213,306.31a28.59,28.59,0,0,1,21.42,9,30.86,30.86,0,0,1,8.71,22.18v29.75h-8.93V337.53a22.17,22.17,0,0,0-6.17-16,21.09,21.09,0,0,0-30.13,0,22.17,22.17,0,0,0-6.17,16v29.75h-8.93V289.92h8.93Z"
     transform="translate(-162.93 -226.68)"
     id="path152" />
  <path
     class="cls-3"
     d="M373.62,364.68a30.38,30.38,0,0,1-15.42,4.11,31.24,31.24,0,0,1,0-62.48A31.24,31.24,0,0,1,385,321.52l2.33,3.89L341.27,352q.54.65,1.19,1.3a21.46,21.46,0,0,0,15.74,6.55,21.78,21.78,0,0,0,11-2.92,22.15,22.15,0,0,0,8.17-8l7.63,4.54A30.49,30.49,0,0,1,373.62,364.68Zm-36.68-20.45,37.76-21.8a23.31,23.31,0,0,0-5.46-4.33,22.09,22.09,0,0,0-11-2.87,22.35,22.35,0,0,0-22.29,22.29A22.09,22.09,0,0,0,336.94,344.23Z"
     transform="translate(-162.93 -226.68)"
     id="path154" />
  <path
     class="cls-3"
     d="M440,321.3a19.8,19.8,0,0,0-28.62,0q-5.84,6.33-5.84,16.17v29.81h-8.93v-59.5h8.93v8.6q7.3-10.12,20.18-10.12a27.18,27.18,0,0,1,20.88,9,29.71,29.71,0,0,1,5.19,7.74l-7.79,4.49A21.59,21.59,0,0,0,440,321.3Z"
     transform="translate(-162.93 -226.68)"
     id="path156" />
  <path
     class="cls-3"
     d="M473.59,289.92v17.85H484v8.66H473.59v50.85h-8.93V316.43H454.27v-8.66h10.39V289.92Z"
     transform="translate(-162.93 -226.68)"
     id="path158" />
  <path
     class="cls-3"
     d="M502.15,307.78v59.5h-8.93v-59.5Z"
     transform="translate(-162.93 -226.68)"
     id="path160" />
  <path
     class="cls-3"
     d="M530.65,289.92v17.85H541.1v8.66H530.65v50.85h-8.93V316.43H511.34v-8.66h10.39V289.92Z"
     transform="translate(-162.93 -226.68)"
     id="path162" />
  <path
     class="cls-4"
     d="M547.59,337.53a31.3,31.3,0,1,1,9.14,22.07A30.07,30.07,0,0,1,547.59,337.53Z"
     transform="translate(-162.93 -226.68)"
     id="path164" />
  <path
     class="cls-2"
     d="M305.77,307.78v29.75a22.24,22.24,0,0,1-6.17,16,20.68,20.68,0,0,1-29.74,0,22.24,22.24,0,0,1-6.17-16V307.78h-8.93v29.75a30.86,30.86,0,0,0,8.71,22.18,29.42,29.42,0,0,0,42.51,0,30.86,30.86,0,0,0,8.71-22.18V307.78Z"
     transform="translate(-162.93 -226.68)"
     id="path166" />
  <circle
     class="cls-3"
     cx="334.76"
     cy="67.86"
     r="6.28"
     id="circle168" />
  <circle
     class="cls-2"
     cx="415.9"
     cy="67.86"
     r="6.28"
     id="circle170" />
</svg>
