<?xml version="1.0" encoding="utf-8"?>
<!-- Generator: Adobe Illustrator 18.0.0, SVG Export Plug-In . SVG Version: 6.00 Build 0)  -->
<!DOCTYPE svg PUBLIC "-//W3C//DTD SVG 1.1//EN" "http://www.w3.org/Graphics/SVG/1.1/DTD/svg11.dtd">
<svg version="1.1" id="Layer_1" xmlns="http://www.w3.org/2000/svg" xmlns:xlink="http://www.w3.org/1999/xlink" x="0px" y="0px"
	 viewBox="0 0 475 475" style="enable-background:new 0 0 475 475;" xml:space="preserve">
<rect x="26.5" y="22.8" style="fill:none;" width="421.3" height="51.2"/>
<text transform="matrix(1 0 0 1 88.8696 65.8003)" style="font-family:'AmaticSC-Bold'; font-size:65;">nosotros somos</text>
<g>
	<path d="M223.1,154.7c-1.4-1.1-2.5-2.5-3.3-4.2c-0.7-1.7-1.1-3.3-1.1-4.9c0-2,0.2-3.9,0.5-5.9c0-0.6,0.3-1.6,0.7-2.7
		c0.1-0.5,0.3-0.9,0.4-1.3c0.2-0.4,0.3-0.7,0.4-1c0.3-0.7,0.7-1.5,1.1-2.5c0.5-1,0.9-1.8,1.2-2.4c0.1-0.4,0.6-1.3,1.4-2.9
		c0-1.2-0.1-2.6-0.3-4.4c-0.1-1.9-0.2-3.4-0.2-4.5v-5.4c0-1.5,0.4-2.7,1.1-3.5c0.7-0.8,1.7-1.2,2.9-1.2c1.7,0,3.2,0.6,4.6,1.8
		c1.4,1.2,2.1,2.5,2.1,4.1c0,2.6-0.4,4.9-1.3,6.9c-0.8,2.1-2.2,4.1-4,6.3c-0.1,0.1-0.3,0.4-0.6,0.9c-0.7,1-1.1,1.8-1.1,2.2
		c0,1.2,0.4,3.2,1.2,6c0.8,2.8,1.7,5.5,2.7,8.1c1,2.6,1.9,4.3,2.7,5.1c1.3-3,2-6.8,2-11.4v-0.3c-0.3,0-0.5-0.1-0.6-0.2l-0.2-0.3
		l-0.1-0.3c0-0.1-0.1-0.2-0.1-0.2c0,0-0.1-0.1-0.1-0.1v-1.6c1.2,0,2.5-0.1,4.1-0.2c1.5-0.2,2.6-0.4,3.3-0.6c1.3,0.3,1.9,0.8,1.9,1.7
		c0,0.6-0.3,1.1-1,1.4c-0.7,0.3-1.5,0.5-2.4,0.5l-0.1-0.1h-0.1h-1.6c0,6.9-0.9,11.5-2.7,13.9c1.3,1.3,2.7,2,4.1,2l1.4-0.1l1.3-0.1
		l1.2,1c0,0.8-0.3,1.4-0.8,1.7c-0.5,0.3-1.4,0.5-2.5,0.5c-2,0-4.1-0.8-6.2-2.4c-2.5,1.6-5,2.5-7.3,2.5
		C226,156.3,224.5,155.8,223.1,154.7z M230.8,153.1c1-0.4,1.7-0.8,2.2-1.2c-4-5.7-6.6-12.3-7.9-20c-2.3,3.7-3.4,7.9-3.4,12.7
		c0,2.2,0.5,4.2,1.5,6c0.5,1,1.2,1.7,2.1,2.2c0.9,0.5,1.9,0.8,3,0.8C228.9,153.6,229.8,153.4,230.8,153.1z M230.3,120.2
		c1-1.8,1.5-3.3,1.5-4.3c0-0.9-0.4-2-1.1-3.2c-0.7-1.2-1.4-1.8-2.1-1.8c-0.6,0-1.2,0.5-1.7,1.6v3.4l0.1,4.4c0,1.3,0.1,2.8,0.1,4.4
		v0.7C228.3,123.8,229.3,122.1,230.3,120.2z"/>
</g>
<g>
	<path d="M278.3,129.8c0-0.8,0.5-1.3,1.6-1.3l0.6,0l0.5,0c0.3,0,0.5-0.1,0.6-0.3c0.1-0.2,0.1-0.5,0.1-0.9c0-0.6-0.1-1.5-0.2-2.7
		c-0.1-0.8-0.3-2.3-0.5-4.5c-0.4-5.3-0.7-9.3-0.8-12c0-1,0-1.9,0-2.6l0-2.6c0-1.1-0.1-2.1-0.2-2.8c-0.6,0.2-0.9,0.2-1.2,0.2
		c-0.8,0-1.3-0.4-1.3-1.2c0-0.4,0.2-0.8,0.8-1.1c0.5-0.3,1.2-0.6,2-0.7c1.4-0.3,2.6-0.5,3.7-0.5c0.4,0,0.8,0.1,1.1,0.4
		c0.3,0.3,0.5,0.6,0.5,1c0,0.4-0.1,0.7-0.3,1c-0.2,0.3-0.5,0.4-0.8,0.4c-0.2,0-0.4,0-0.5,0l-0.4,0c-0.3,0-0.6,0.1-0.7,0.3
		c-0.2,0.2-0.2,0.4-0.2,0.9c0.1,3.4,0.4,8.4,1,15.1c0.1,1.2,0.3,3.1,0.6,5.5c0.2,1.6,0.3,3.2,0.4,4.9l0,2c0.2,0,0.6-0.1,1-0.1
		c1.5,0,2.2,0.6,2.2,1.8l0,0.3l-1.3,0.9c0,0-0.1,0-0.3,0c-0.2,0-0.5,0-1.1,0.1c-1.1,0.1-1.8,0.1-2.1,0.2
		C279.8,131.3,278.3,130.8,278.3,129.8z"/>
	<path d="M295.9,130.8c-0.1-4-0.6-8.1-1.4-12.3c-0.9-4.2-2.1-9.4-3.9-15.5c-0.1-0.3-0.2-0.9-0.5-1.6c-0.7-1.9-1-3.1-1-3.7
		c0-0.3,0.1-0.6,0.4-0.8c0.3-0.2,0.5-0.4,0.8-0.4c0.5,0,1,0.4,1.5,1.3c0.5,0.8,0.9,1.9,1.3,3.3c0.4,1.4,0.9,3.1,1.4,5.2
		c0.5,2,1,5,1.7,9l0.4,2l0.7,4.6c0.2,1.3,0.3,2.2,0.4,2.7c0.6-3.8,1.4-9.3,2.4-16.6c0.8-6.2,1.3-10.4,1.7-12.7l1.1,0
		c0.3,0,0.6,0.1,0.8,0.3c0.2,0.2,0.4,0.5,0.4,0.8c0,1.2-0.1,2.6-0.3,4c-0.3,1.4-0.7,3.2-1.2,5.2c-0.4,1.7-0.7,3-0.9,3.9
		c-0.1,0.9-0.2,2.2-0.3,4.1c-0.2,4.2-0.5,8-1,11.3c-0.3,2-0.8,3.6-1.4,4.8c-0.6,1.2-1.3,1.7-2.1,1.8L295.9,130.8z"/>
	<path d="M318.7,130.5c-0.4-0.2-0.6-0.7-0.6-1.3c0-1-0.2-2.8-0.7-5.3l-0.2-1.1l-5.2-0.7c-0.2,0.8-0.4,2.4-0.8,4.8
		c-0.2,1.7-0.5,2.8-0.9,3.4c-0.2,0.3-0.6,0.5-1,0.5c-0.4,0-0.8-0.1-1.2-0.4c-0.4-0.3-0.5-0.6-0.5-0.9l0.1-0.3l0-0.2
		c2.1-8.9,3.6-17.8,4.5-26.4c0-0.1,0-0.4,0-0.7c0-0.3,0-0.8,0.1-1.4c0.1-1.3,0.2-2.3,0.3-3.1c0.1-0.8,0.3-1.3,0.6-1.7l1.8,0
		c0.5,0,0.9,0.1,1.3,0.3c0.4,0.2,0.5,0.5,0.5,0.9c0.1,2.6,0.5,6.5,1.4,11.7c0.8,5.3,1.3,9,1.3,11.2c0,0.2,0.1,0.7,0.3,1.6
		c0.2,0.8,0.3,1.3,0.3,1.6c0,0.2,0.2,1.3,0.6,3.1c0.4,1.7,0.5,2.7,0.5,3.2l0,0.1c0,0.8-0.2,1.3-0.8,1.5
		C319.7,130.8,319.1,130.7,318.7,130.5z M316.6,119c-0.1-3.1-0.5-7.1-1.1-11.9l-0.7-5.4c-1.3,8.2-2.2,14.3-2.6,18.5
		c0.5,0.3,2.1,0.6,4.6,0.7C316.7,120.4,316.6,119.8,316.6,119z"/>
	<path d="M339,129.7c-0.2-0.2-0.4-0.6-0.5-1.2l-0.3-1l0-0.1l0-0.2c0-1.1-1.3-5-3.8-11.6c-2.5-6.6-4.5-11.4-5.9-14.6l0.7,26.1
		l0.2,0.4c0,0.1,0.1,0.2,0.2,0.4c0.1,0.2,0.2,0.3,0.2,0.5c0,0.4-0.1,0.8-0.4,1.2c-0.3,0.3-0.7,0.5-1.1,0.5c-1.1,0-1.7-1-1.7-3.1
		l-0.3-8.9c-0.1-2.7-0.2-5.6-0.3-8.9c0-1.1,0-2.7,0-4.8c0-2.2,0.1-3.8,0-4.8c0-1.6,0.6-2.9,1.8-3.9l0,0.3c0.2-0.1,0.3-0.1,0.4-0.1
		c0.8,0,1.8,1.3,3.1,4.1c1,2.2,2,4.5,2.8,6.9c0.8,2.4,2,5.9,3.3,10.4l0.6,1.9c0.9,2.8,1.5,4.8,2,6c0.5-7.5,0.6-16.2,0.4-26.4l0-0.7
		c0-0.2-0.1-0.4-0.1-0.7c0-1,0.4-1.6,1.2-1.6c0.5,0,0.9,0.2,1.1,0.5c0.3,0.4,0.4,0.9,0.4,1.4l0.1,3.9c0.1,5.3,0,11.1-0.2,17.3
		c-0.2,6.2-0.5,9.8-1,10.6c-1,0.3-1.6,0.5-1.9,0.5C339.5,130,339.2,129.9,339,129.7z"/>
</g>
<g>
	<path d="M120.6,168.2c-0.2-0.9,0.2-1.4,1.3-1.7l0.6-0.2l0.6-0.1c0.3-0.1,0.5-0.2,0.5-0.4c0.1-0.2,0-0.5-0.1-1
		c-0.2-0.6-0.4-1.6-0.9-2.8c-0.3-0.8-0.9-2.3-1.6-4.5c-1.8-5.4-3-9.5-3.7-12.3c-0.3-1-0.5-1.9-0.7-2.8l-0.7-2.8
		c-0.3-1.2-0.6-2.2-0.9-2.9c-0.5,0.3-0.9,0.5-1.2,0.5c-0.9,0.2-1.4-0.1-1.6-1c-0.1-0.4,0.1-0.9,0.5-1.3c0.5-0.5,1.1-0.9,1.9-1.2
		c1.4-0.7,2.6-1.1,3.7-1.4c0.4-0.1,0.8-0.1,1.2,0.2c0.4,0.2,0.6,0.5,0.7,0.9s0.1,0.8-0.1,1.1c-0.2,0.3-0.4,0.6-0.8,0.7
		c-0.2,0.1-0.4,0.1-0.6,0.1l-0.4,0.1c-0.4,0.1-0.6,0.2-0.7,0.4c-0.1,0.2-0.1,0.5,0,1c0.9,3.5,2.5,8.7,4.7,15.6
		c0.4,1.3,1,3.1,1.9,5.6c0.6,1.6,1.1,3.3,1.6,5l0.5,2c0.2-0.1,0.6-0.2,1.1-0.3c1.5-0.4,2.4,0,2.8,1.3l0.1,0.3l-1.1,1.3
		c0,0-0.2,0-0.3,0.1c-0.2,0.1-0.6,0.2-1.1,0.3c-1.1,0.4-1.9,0.6-2.2,0.7C122.6,169.5,120.9,169.3,120.6,168.2z"/>
	<path d="M138,164.6l-0.6-2.1c-0.2-0.6-0.4-1.3-0.6-2l-0.4-1.8c-0.2-0.4-1.5-4.2-3.9-11.6c-2.4-7.4-3.9-12.1-4.5-14.2
		c-2.1,0.5-3.5,0.6-4.2,0.4c-0.5-0.2-0.8-0.5-0.8-0.8c-0.1-0.3,0-0.6,0.4-0.9c0.3-0.3,0.7-0.5,1.1-0.7c1-0.3,2.2-0.5,3.7-0.7
		c1.4-0.2,2.7-0.4,3.7-0.7l0.4-0.1l0.4-0.1c1.1-0.3,1.8,0,2,0.9c0.1,0.4,0,0.8-0.3,1.2c-0.3,0.4-0.7,0.6-1.1,0.7
		c-0.3,0.1-0.8,0.2-1.4,0.2l-1.1,0.1l0,0.3l0,0.3c0.8,3.2,2.5,8.2,4.9,15.1c2.3,6.4,3.9,11.5,4.8,15.1c0.1,0.4,0,0.9-0.3,1.3
		c-0.3,0.4-0.7,0.7-1.1,0.8L138,164.6z"/>
	<path d="M148.7,162.5c-0.3-0.2-0.6-0.4-0.7-0.8c-0.6-2.2-0.9-5.1-0.9-8.8c-0.1-3.7,0-8.4,0.3-14c0.2-5.8,0.3-9.5,0.3-11.1
		c-0.4,0.1-1.1,0.3-2.1,0.7c-0.9,0.4-1.7,0.6-2.3,0.8c-0.4,0.1-0.7,0-1.1-0.2c-0.4-0.2-0.6-0.5-0.7-0.9c-0.3-1,1.6-2.1,5.5-3.1
		c1.8-0.5,2.8-0.2,3.1,0.8c0.3,1.2,0.3,3,0.1,5.4c-0.2,2.2-0.3,3.9-0.2,4.9c0.3,2.6,0.5,7.1,0.4,13.2l0,9.9l1-0.3l1.1-0.4
		c0.3-0.1,0.7-0.2,1.1-0.3l0-0.1c1.4-0.4,2.3-0.1,2.5,0.8c0.1,0.4,0,0.8-0.3,1.1c-0.3,0.3-0.7,0.6-1.3,0.7c-0.6,0.1-1.1,0.3-1.6,0.4
		l-1.6,0.3c-0.2,0.1-0.5,0.2-0.8,0.6c-0.4,0.3-0.7,0.5-0.9,0.5C149.4,162.7,149.1,162.6,148.7,162.5z"/>
	<path d="M166,158.5c-0.5-0.2-0.8-0.6-0.9-1l-0.4-1.4l-0.3-1.1c-0.1-0.3-0.2-0.7-0.3-1.1c-0.2-0.8-0.5-1.9-1.1-3.4l-1-3.4
		c-0.5-1.8-1.1-4.4-1.9-7.9c-0.7-3.2-1.3-5.8-1.8-7.9c-0.1-0.5-0.4-1.2-0.7-2.2c-0.4-1-0.6-1.8-0.7-2.2c-0.7-2.6-0.2-4,1.3-4.4
		c1.2-0.3,2.6-0.4,4.3-0.4c1.7,0.1,2.6,0.4,2.8,1.1c0.1,0.4,0,0.7-0.2,1.1c-0.2,0.4-0.5,0.7-0.9,1c-1.7-0.1-3.1-0.2-4.4,0
		c0.2,0.5,0.4,1.3,0.7,2.3c0.4,1.4,0.7,2.7,1,3.9c0.3,1.8,0.6,3.1,0.8,3.9l0.4,0.8l0.8-0.3c0.3-0.1,0.6-0.2,1.1-0.3
		c1.7-0.4,2.7-0.2,3,0.8c0.1,0.4,0,0.8-0.2,1.1c-0.3,0.4-0.6,0.6-1.1,0.7c-0.6,0.2-1.2,0.3-1.5,0.3l-1.3,0.3
		c0.3,0.9,0.7,2.3,1.2,4.1c0.5,1.8,0.9,3.4,1.2,4.9c0.5,2.2,0.8,3.9,1.1,4.9c0.5,2,0.8,3,0.9,3l1.8-0.5c0.6-0.2,1.3-0.4,2.2-0.6
		c1.4-0.4,2.2-0.1,2.4,0.8c0.1,0.5,0,0.9-0.4,1.3c-0.4,0.4-0.9,0.7-1.5,0.8l-4.6,1.2C166.9,158.7,166.5,158.7,166,158.5z"/>
	<path d="M183.6,153.9c-0.5,0.5-1,0.8-1.7,1c-0.4,0.1-0.8,0-1.3-0.3c-0.4-0.3-0.7-0.7-0.8-1.1c-0.8-3-1.7-7.1-2.8-12.2
		c-1.2-5.4-2.1-9.4-2.8-12.1l-0.1-0.4c-0.8-2.2-1.3-3.9-1.6-5c-0.9-3.4-0.7-5.3,0.6-5.6c0.4-0.1,0.7,0,1,0.2
		c0.3,0.2,0.6,0.5,0.6,0.8c0.1,0.4,0.2,1.1,0.4,2.1c0.1,0.9,0.2,1.6,0.4,2.1c0.6,2.4,1.2,4.6,1.7,6.5c0.5,1.9,1.1,4,1.7,6.5
		c0,0.6,0.1,1.4,0.3,2.3l0.2,0.6l1,4.3c0.3,1.3,0.6,2.7,1,4.3c0.6,2.5,1.6,3.6,2.7,3.3c0.1,0,0.2-0.1,0.3-0.1
		c0.2-0.1,0.4-0.1,0.7-0.2c0.3-0.1,0.7-0.2,1.2-0.4c1.9-0.5,3.1-0.2,3.3,0.9c0.1,0.4,0,0.7-0.2,1c-0.3,0.3-0.6,0.6-1.1,0.8
		C187.2,153.2,185.5,153.4,183.6,153.9z"/>
</g>
<g>
	<path style="fill:#EEC194;" d="M193.2,358.2l16.2,27.8l19.4-10.8c0,0,5.9-0.8,6.1,6.1c0.2,5.1-16.4,12.2-25.3,15.7
		c-3.1,1.2-6.6-0.1-8.1-3l-18.8-38.6L193.2,358.2z"/>
	<path style="fill:#0F0F0F;" d="M188.8,338.5c0,0-5.7-5.3-9.9-2.6c-4.2,2.7-9.3,2.3,0,21.2c0,0,11.9,3.6,14.7,3.6
		C196.5,360.7,192.3,350.6,188.8,338.5z"/>
	<path style="opacity:0.87;fill:#FF3B86;" d="M188.4,331.4c0,0,3.5,11.5,3.3,14.3c-0.2,2.8,7.5,10.3,5.5,13.6s7.7,7.4,6.5,10.4
		s1.9,5.7,3.5,7.2c0,0-7.2,12.5-11.2,11.7c-4-0.8-2.1-0.5-3-3.8c-0.9-3.4-4.2-3.4-4.4-6.1c-0.2-2.8-1.8-6.4-3.4-7.6
		c-1.6-1.2-6.2-5.7-4.2-9.2c2.1-3.5-6.6-5.7-5.1-9.2c1.5-3.5-4.5-6.4-2.6-9.9C175.2,339.2,177.5,318.6,188.4,331.4z"/>
	<path style="fill:#EEC194;" d="M168.5,316.3c0,0,0.2,8.8,1.6,16.5c1.4,7.4,4,11.5-3.4,11.3c-7.4-0.2-24.8-6.4-18.3-9.8
		c7.5-3.9,9.1-13.5,7.3-17C153.9,313.8,168.5,316.3,168.5,316.3z"/>
	<path style="opacity:0.8;fill:#EEC194;" d="M169.5,329.3c-0.9-6.6-1-13-1-13s-0.8-0.1-2.1-0.3l-10,4.8
		C156.4,320.8,167.3,334.9,169.5,329.3z"/>
	<path style="fill:#026A8E;" d="M340.3,318.2c4.5,22.8,4.7,69.2-48.1,116.4l-8.7-15.1c0,0,45.8-43.4,40.1-82.3
		c-0.9-6.4-2.1-11.7-3.5-16L340.3,318.2z"/>
	<path style="fill:#020015;" d="M340.2,325.9l-5.5,0.8l-8.4,14.6l-1.6,109c0,0,16.8,9.1,28.8,0c12-9.1,0-120.8,0-120.8L340.2,325.9z
		"/>
	<polygon style="fill:#026A8E;" points="341.5,327.2 337.2,472.7 373.8,452.3 383.9,383.9 372.9,314.9 	"/>
	<polygon style="fill:#026A8E;" points="333.7,332.7 332.6,473.1 321.1,455.5 324.2,325.9 	"/>
	<path style="fill:#B18047;" d="M351,296.2c0,0,0.1,8.1,6.2,14.6c0,0-9,12.2-17.1,15.1c0,0-2.8-19-4.6-24.4
		C333.6,296.2,348.5,293.4,351,296.2z"/>
	<path style="opacity:0.51;fill:#B18047;" d="M351,296.2c0,0,0.3,16.3-12.6,18.7l-2.9-15.2C335.5,299.7,347.7,292.1,351,296.2z"/>
	<path style="fill:#B18047;" d="M270.6,210.1c0,0-8.3,73.1,14.5,85.1c22.8,12,70.5,13,84-18s3.6-82.6-4.7-88.6
		C356.2,182.6,273.2,156.1,270.6,210.1z"/>
	<g>
		<g>
			<path style="fill:#B18047;" d="M264.7,432.6c0,0-16.3,0.5-21.5-3.8c-5.2-4.3-6.8,3.5-2.8,6.7c4,3.3,10.9,7.1,18.1,5.3
				C265.7,438.9,264.7,432.6,264.7,432.6z"/>
			<path style="fill:#B18047;" d="M247.8,447.3c0,0-18.7,7.2-20.6,3.4c-1.9-3.8,5.3-6.9,20.3-10.3
				C262.4,436.9,247.8,447.3,247.8,447.3z"/>
			<path style="fill:#B18047;" d="M247.7,455.1c0,0-18.7,7.2-20.6,3.4c-1.9-3.8,5.3-6.9,20.3-10.3
				C262.4,444.8,247.7,455.1,247.7,455.1z"/>
			<path style="fill:#B18047;" d="M252.5,460.9c0,0-18.7,7.2-20.6,3.4s5.3-6.9,20.3-10.3C267.2,450.6,252.5,460.9,252.5,460.9z"/>
			<path style="fill:#B18047;" d="M259.3,462.2c0,0-13.3,9.4-15.6,6.8c-2.3-2.6,2.8-6.5,14-12.2
				C268.8,451.1,259.3,462.2,259.3,462.2z"/>
			<path style="fill:#B18047;" d="M250.6,440.8c0,0,0.4,14.2,7.5,17.2c7.1,3,16.9-3.9,17.6-9.6c0.7-5.7-11.1-15.9-11.1-15.9
				L250.6,440.8z"/>
			<path style="fill:#B18047;" d="M266.7,457.8c0,0-6.4,4.3-11.7,7.2c-5.3,2.9-16.5-14.6-10.2-20.7c6.3-6.1,11.2-6.7,11.2-6.7
				L266.7,457.8z"/>
		</g>
		<path style="fill:#B18047;" d="M275.8,448.4c2.9-5.3,6.3-8.9,6.3-8.9s-5-14.5-8.3-11.3c-3.3,3.2-6.4,4.3-9,4.3
			C262.1,432.6,275.8,448.4,275.8,448.4z"/>
	</g>
	<path style="fill:#0082BC;" d="M273.7,428.2c0,0,3.1-1.8,9.2,15.2l14.7-6.2c0,0-10.9-20.7-18.3-18.4
		C279.3,418.9,262,423.3,273.7,428.2z"/>
	<polygon style="fill:#0082BC;" points="337.6,310.5 324.7,314.9 331.1,343 339.7,323 	"/>
	<path style="fill:#026A8E;" d="M349.7,336.6c9.1-2.5,14.2-5.4,14.2-5.4c1.8,4.6,13.3,11.8,8.8,37.1c-4.8,26.9-51.7,27.7-51.7,27.7
		c5.2,15.9,1.4,26.9,1.4,26.9c-1.7-11.6,66.7-4.6,65.3-36.7c-1.7-40.4-5.5-83.4-12.7-85.2c-10.8-2.7-8.6,7.3-29.9,15.7L349.7,336.6z
		"/>
	<path style="fill:#0082BC;" d="M362.1,306.6l-8.6-3.6l-13.3,22.9l3.1,17.1C343.3,343,366,324.8,362.1,306.6z"/>
	<path style="fill:#0082BC;" d="M325.2,394c0,0,11.4,20.6,4.3,24.8c-2.1,1.3-13.3-1.4-13.3-1.4s-3.1-17.1-3.1-20.9
		S325.2,394,325.2,394z"/>
	<g>
		<path style="fill:#B18047;" d="M285,401.6c0,0-13.8,1.6-17.7-2.6s14.7-5.7,22.7-5.8C301,393.1,307.5,398.9,285,401.6z"/>
		<path style="fill:#B18047;" d="M305.9,399.3c0,0-6.3-12.7-4.8-18.4s-5.2-4.2-6.3,0.2c-1.1,4.4-1.7,11.2,2.4,16.2
			C301.2,402.4,305.9,399.3,305.9,399.3z"/>
		<path style="fill:#B18047;" d="M285.7,396c0,0,9.4,0.5,13-2.6s12.6,6.6,10.9,15.8c-1.8,9.3-22,12.5-25.2,5.3
			C281.2,407.5,281.4,396.1,285.7,396z"/>
		<path style="fill:#B18047;" d="M283.2,402.2c0,0-3.9,2.9-2,5.7c1.8,2.8,0.8,1,0.8,1s-1.2,4.6,2.4,5.6c0,0-0.7,4.3,4.1,3.3
			C288.4,417.9,300.2,403.6,283.2,402.2z"/>
		<path style="fill:#B18047;" d="M304.9,398.9c0,0,8.1,0.3,10.7-1.1c0,0,4.8,14.1,2,17c0,0-11,0-16.8,0L304.9,398.9z"/>
	</g>
	<path style="fill:#EEC194;" d="M197.1,220.3c0,0,25.9,72,6,84.6c-19.9,12.6-52.5,21.2-74.3,13.2c-21.8-7.9-39.5-72.3-17.7-80.9
		S182.6,208.6,197.1,220.3z"/>
	<path style="fill:#332314;" d="M124.3,199c0,0,28.3-42.8,66.1-22.3s45.8-1,45.8-1s-0.8,26.7-24,25.4c0,0,16.8,13.5,28.5,9.4
		c0,0-10.3,42.4-47.2,17.5c0,0,17,15.3,28.8,12c0,0-13.1,20.9-51.1-1.2s-33.8-4.3-40.7,0c0,0-24.4,25.9-30,6.5S84.8,177.5,124.3,199
		z"/>
	<path style="fill:#332314;" d="M97.6,199.3c0,0-40.4,35.4,10.7,93.4l9.6,18c0,0-12-49.3-7.3-56.1s24.1,23,64.2,0.6
		c8.1-4.5,17.4-11.2,17.4-11.2s-27.6,3.1-34.6-6.5c0,0,24.8,8.2,33.7-0.2c0,0-28.2-29-49.1-24.3C121.3,217.6,97.6,199.3,97.6,199.3z
		"/>
	<path style="fill:#EEC194;" d="M114,299.2c0,0-6.2-11-12-6.9c-5.8,4.1-3.2,29.8,17.6,16.9L114,299.2z"/>
	<path style="opacity:0.8;fill:#EEC194;" d="M170.3,290.2c0,0,6.3-7.2,8.5-4.2C181,289,175.5,287.7,170.3,290.2z"/>
	<path style="opacity:0.8;fill:#EEC194;" d="M173.3,277.2c0,0,1.8,4.2,3.5,5.1c0,0-1.9,2.7-2.7,0.4
		C173.2,280.4,173.3,277.2,173.3,277.2z"/>
	<path style="opacity:0.8;fill:#EEC194;" d="M110.4,308.6c-0.3,0-0.6,0-0.9,0c-2.2,0-3.9-0.9-4.8-2.6c-1.1-2-0.8-4.8,0.7-6.9
		c0.5-0.8,1.3-1.2,2.2-1.3c2.9-0.2,6.4,3.2,6.8,3.5l-1.1,1.2c-0.9-0.9-3.7-3.2-5.5-3.1c0,0,0,0,0,0c-0.4,0-0.8,0.2-1.1,0.6
		c-1.1,1.6-1.4,3.8-0.6,5.2c0.6,1.1,1.8,1.8,3.3,1.8c2.1,0,3-0.6,3.1-1.1c0.1-0.4-0.2-0.8-0.5-1c-1-0.5-3.5-0.7-4.4-0.8l0.1-1.6
		c0.4,0,3.5,0.2,5,0.9c1,0.5,1.7,1.7,1.4,2.8C114,306.9,113.3,308.4,110.4,308.6z"/>
	<path style="fill:#0F0F0F;" d="M153.8,334.5c0,0,18.4,21.1,21.4-2.1c0,0,8.7,8.1,9,13.7s0.5,65.1,8.1,82.9l-14.1,13.8l-24.9-14.2
		L153.8,334.5z"/>
	<path style="opacity:0.87;fill:#FF3B86;" d="M163.6,345.6c0,0,10.6,73.4,17.1,79.1s-0.7,23.1-0.7,23.1l-28.4-5.2
		c0,0-23.4-95.9-11.1-102.3C152.9,333.8,163.6,345.6,163.6,345.6z"/>
	<path style="fill:#0F0F0F;" d="M283.5,164.1c0,0-10.3-16.9,12.5-23.9c3.5-1.1,8.7-2.4,9.2-4.9c0,0,7.1,8.2-1.1,16.6
		c0,0,10.9-13.3,25.5-9.8c14.7,3.5,19-2.4,21.7-4.6c0,0-1.9,8.2-10.9,12.2c0,0,10.6-7.1,23.4,7.6c12.8,14.7,18.2,16.8,25.5,11.4
		c0,0,3.3,11.7-9.8,16C366.7,189.1,274.3,179,283.5,164.1z"/>
	<path style="fill:#0F0F0F;" d="M283.5,164.1c0,0-23.9-5.7-23.9,26.6c0,7.1-4.7,12-11.6,9.2c0,0,4.9,15.5,17.8,13
		c0,0,0.6,5.4-8.9,3.5c0,0,11.4,14.9,31,0.4c19.6-14.5,30.4-39.8,26.9-44.7S283.5,164.1,283.5,164.1z"/>
	<path style="fill:#0F0F0F;" d="M293.8,206.5c0.5,1.1-3,19.3,17.7,23.1C332.1,233.4,330,218,330,218s-9.2,12.4-18,3.9
		c-8.9-8.4-8.9-20.7-13.5-20.4C293.8,201.9,293.8,206.5,293.8,206.5z"/>
	<path style="fill:#0F0F0F;" d="M296.8,198.6c0,0,2.9,20.7,25.3,18.5c22.5-2.2,11.1,7.3,11.1,7.3s3.3,1.9,8.2-5.4s7.3-15,1.4-17.4
		c-6-2.4,15.5-16,5.7-23.1S287.9,150.2,296.8,198.6z"/>
	<path style="fill:#0F0F0F;" d="M374,176.8c0,0,20.6,6.2,15.9,26.9c-4.7,20.7-8.5,13.9-2.5,30.5c6,16.6-11.7,9.5-13.3,19.3l-3.3-9.9
		l-5.4-1.4v-15.8c0,0,0.8-20.7-8.7-13.4c-9.5,7.3-20.1,0-20.1,0s16.8,0.5,17.9-5.7c0,0-33.4,9.4-21.2-13.8S368.3,168.9,374,176.8z"
		/>
	<path style="fill:#B18047;" d="M363.9,250.1c0,0,0.4-18.2,11.9-13.8s18.3,21.3,3.6,30.6c-14.7,9.3-15.5,1.1-15.5,1.1V250.1z"/>
	<path style="fill:#EEC194;" d="M140.1,336.4c0,0,5,93.9,3,101.7c-2.1,7.8,12.6,13.1,13.2,4.3c0.6-8.8-3.2-104.6-6-105.5
		C147.4,336,143.4,333.6,140.1,336.4z"/>
	<path style="fill:#0F0F0F;" d="M153.2,334.9c0,0-4.7-5.6-10.1-2s-4,22.6-4,22.6l15.3,1.3C154.4,356.8,158.8,347.5,153.2,334.9z"/>
	<path style="opacity:0.87;fill:#FF3B86;" d="M148.5,331.1c0,0-9.4,0.1-13,6.9c-3.7,6.9,1.4,11.3,1.7,20c0.3,8.7-3.3,26,2.5,31.8
		c0,0-4.5,3.8-2,5.8c2.5,2,9.4,5.7,14.4,1.5c5.1-4.2,14.6-6,9-9.1c-5.7-3.1-4-1.8-5.3-5.6c-1.3-3.8,9.1-6.5,3.9-11
		c-5.2-4.5-5.2-9.9-5.6-11.5c-0.4-1.6,13.2-12.7,7.5-16.5S155.8,329.4,148.5,331.1z"/>
	<path style="opacity:0.87;fill:#FF3B86;" d="M178.9,337.8c0,0,5.5,74.9,11.3,80.8c5.8,5.8-1.3,23.4,5.5,20.8s-7.5-99.2-13.4-105.1
		S178.9,337.8,178.9,337.8z"/>
	<path style="fill:#FF1261;" d="M145.7,329.2c0,0-3.1-4,0.4-4.1s18.5,5.8,19,10.6c0.5,4.8-4.4,14.2-4.4,14.2
		S145.3,333.4,145.7,329.2z"/>
	<path style="fill:#FF1261;" d="M170.2,325.6c0,0,11.3,0.4,12.9,5.8s6.6,12.1,6.6,12.1s-12.8,6.7-16.4,0
		C173.4,343.4,167.6,327.3,170.2,325.6z"/>
	<path style="fill:#EEC194;" d="M156.3,442.4c0,0,9,16.2,6.8,16.8c-2.2,0.6-12.6-8.5-11.2-13.6S156.3,442.4,156.3,442.4z"/>
	<path style="fill:#EEC194;" d="M154.5,452.7c0,0-2.7,10.7-15,13.1c-12.3,2.4-10-0.8-5.5-2.6s16.9-10.8,16.6-14
		C150.3,446.1,154.5,452.7,154.5,452.7z"/>
	<path style="fill:#EEC194;" d="M149.3,450.6c0,0-2.7,10.7-15,13.1s-10-0.8-5.5-2.6c4.5-1.7,16.9-10.8,16.6-14
		C145.1,444,149.3,450.6,149.3,450.6z"/>
	<path style="fill:#EEC194;" d="M148.1,447.9c0,0-2.7,10.7-15,13.1s-10-0.8-5.5-2.6s16.9-10.8,16.6-14
		C143.9,441.2,148.1,447.9,148.1,447.9z"/>
	<path style="fill:#EEC194;" d="M145.7,445.9c0,0-2.2,8.8-12.3,10.7s-8.2-0.7-4.5-2.1c3.7-1.4,13.8-8.9,13.6-11.5
		C142.3,440.5,145.7,445.9,145.7,445.9z"/>
	<path style="fill:#EEC194;" d="M154.5,452.7c0,0,1.3-7.9-1.6-12.3s-9.7-3.2-9.7-3.2s0.7,4.4-3.3,9.5
		C140,446.8,146.8,460.9,154.5,452.7z"/>
	<ellipse style="fill:#FFFFFF;" cx="334.8" cy="253.5" rx="13.3" ry="11.7"/>
	<ellipse style="fill:#0F0F0F;" cx="329.5" cy="253.5" rx="8.4" ry="9.9"/>
	<ellipse style="fill:#FFFFFF;" cx="284.2" cy="253.5" rx="13.3" ry="11.7"/>
	<ellipse style="fill:#0F0F0F;" cx="279.2" cy="253.5" rx="8.4" ry="9.9"/>
	<path style="opacity:0.51;fill:#B18047;" d="M306.1,270c0,0,9.7,1,9.4,2.9C315,274.8,297.1,270.4,306.1,270z"/>
	<path style="fill:#0F0F0F;" d="M330.5,240.5c-3.8-0.2-7.1-2.8-7.9-6.5c-0.5-2.3,0.1-4.6,3.9-4.9c8.6-0.8,25.1-1.6,26.7,1
		C354.7,232.5,348.7,241.4,330.5,240.5z"/>
	<path style="fill:#0F0F0F;" d="M292.3,239.9c3.8-0.4,6.9-3.2,7.5-6.9c0.4-2.4-0.3-4.5-4.2-4.7c-8.7-0.4-25.2-0.4-26.6,2.3
		C267.8,233.1,274.2,241.7,292.3,239.9z"/>
	<path style="opacity:0.51;fill:#B18047;" d="M371,264.4c-0.1,0-0.2,0-0.3,0c-0.2-0.1-0.4-0.3-0.5-0.5l-3-9.2
		c-0.1-0.4,0.1-0.8,0.5-1l7.9-3.4c0.4-0.2,0.9,0,1.1,0.4l1.7,3.4c0.2,0.4,0,0.9-0.4,1.1c-0.4,0.2-0.9,0-1.1-0.4l-1.3-2.7l-6.5,2.8
		l2.4,7.5l9.7-6.2l-4.1-9.9l-8.8,3.1c-0.4,0.1-0.9-0.1-1-0.5c-0.1-0.4,0.1-0.9,0.5-1l9.5-3.3c0.4-0.1,0.9,0.1,1,0.5l4.6,11.3
		c0.1,0.4,0,0.8-0.3,1l-11.1,7.2C371.3,264.3,371.2,264.4,371,264.4z"/>
	<path style="opacity:0.51;fill:#B18047;" d="M306.9,254.7l-3.3,12.8c0,0,0.9,1.9,2.5,0.8C307.7,267.4,306.6,261.7,306.9,254.7z"/>
	<path style="fill:#0F0F0F;" d="M305.3,281c0,0,16.7-2.3,22.9-5.2c0,0,5.8,16.1-6.5,18.3c-5.7,1-13-11.6-13-11.6L305.3,281z"/>
	<path style="fill:#FFFFFF;" d="M307,280.7l3.6,2.7l18.5-4.3v0c-0.4-2-0.9-3.3-0.9-3.3C323.1,278.2,311.4,280.1,307,280.7L307,280.7
		z"/>
	<path style="fill:#FF6679;" d="M329.5,283.4c-7.1,0.7-14.1,7.8-14.1,7.8c2,1.9,4.3,3.3,6.3,2.9C328.2,293,329.6,287.9,329.5,283.4z
		"/>
	<ellipse style="fill:#FFFFFF;" cx="281.7" cy="248.9" rx="2.6" ry="3"/>
	<ellipse style="fill:#FFFFFF;" cx="332.1" cy="248.9" rx="2.6" ry="3"/>
	<path style="opacity:0.51;fill:#B18047;" d="M250.4,441c0,0,6.4,8.6,12.1,6.8C268.3,446,257.5,457.6,250.4,441z"/>
	
		<ellipse transform="matrix(0.9917 -0.1288 0.1288 0.9917 -35.073 20.4531)" style="fill:#FFFFFF;" cx="140.6" cy="281.5" rx="12.9" ry="10.7"/>
	<circle style="fill:#0F0F0F;" cx="144.6" cy="281" r="8.9"/>
	<path style="fill:#0F0F0F;" d="M150.5,274.3c0,0-14-9.9-22.8,5.6c0,0,0.1-6,7.8-9.1C143.8,267.6,149.4,272.9,150.5,274.3z"/>
	<path style="fill:#0F0F0F;" d="M132.9,272.9c0,0-3.1-3.5-4.4-3.5l0.5,6.5C129.1,275.9,131.1,275.2,132.9,272.9z"/>
	<path style="fill:#0F0F0F;" d="M130,274.8c0,0-4.3-1.8-5.5-1.3l3.3,5.7C127.9,279.2,129.3,277.6,130,274.8z"/>
	
		<ellipse transform="matrix(0.9917 -0.1288 0.1288 0.9917 -32.7756 27.1489)" style="fill:#FFFFFF;" cx="193.6" cy="267" rx="12.9" ry="10.7"/>
	<circle style="fill:#0F0F0F;" cx="197.5" cy="266.5" r="8.9"/>
	<path style="fill:#0F0F0F;" d="M181.5,263.7c0,0,11-13.2,23.5-0.4c0,0-1.6-5.8-9.9-6.8C186.3,255.5,182.3,262,181.5,263.7z"/>
	<path style="fill:#0F0F0F;" d="M198.2,257.8c0,0,2.1-4.1,3.3-4.5l1.1,6.5C202.7,259.8,200.6,259.5,198.2,257.8z"/>
	<path style="fill:#0F0F0F;" d="M201.5,258.9c0,0,3.7-2.8,5-2.7l-1.7,6.3C204.7,262.6,202.9,261.5,201.5,258.9z"/>
	
		<ellipse transform="matrix(0.9917 -0.1288 0.1288 0.9917 -34.6472 20.5111)" style="fill:#FFFFFF;" cx="141.3" cy="278.2" rx="2" ry="2.4"/>
	
		<ellipse transform="matrix(0.9917 -0.1288 0.1288 0.9917 -32.3724 27.0698)" style="fill:#FFFFFF;" cx="193.2" cy="263.9" rx="2" ry="2.4"/>
	<path style="fill:#332314;" d="M124.4,272.1c0,0,14.3-6.2,23.6-4.9c0,0-0.5-3.9-4.9-2.6C138.7,265.9,127.4,267.6,124.4,272.1z"/>
	<path style="fill:#332314;" d="M205.7,253.9c0,0-16.3-1-24.9,3.8c0,0-1-4.2,3.8-4.5C189.4,252.9,201.1,250.5,205.7,253.9z"/>
	<path style="fill:#0F0F0F;" d="M163.2,296.4c0,0,11.9,0.8,15.2-1.3c0,0-0.5,16.7-11.7,14.9S163.2,296.4,163.2,296.4z"/>
	<path style="fill:#FFFFFF;" d="M175.6,299.3l1-3.5h0c-4.5,1.2-13.4,0.6-13.4,0.6s-0.6,1-1.3,2.4
		C165.1,301.7,175.6,299.3,175.6,299.3z"/>
	<path style="fill:#FF6679;" d="M160.8,302.1c-0.7,3.3,0,7,5.9,7.9c3.9,0.6,6.5-1,8.2-3.3C172,302.4,160.8,302.1,160.8,302.1z"/>
	<path style="fill:#EEC194;" d="M232.1,369.9c0,0-0.5-10.6-1.8-15.2c-0.1-0.5,0.1-1.1,0.7-1.2c1-0.3,2.7-0.3,4.6,1.6
		c3.1,3,2,10.3,2.4,11.9S235.2,371.7,232.1,369.9z"/>
	<path style="fill:#EEC194;" d="M231.9,369.7c0,0-0.4,3.8-3.2,5.5c-2.8,1.7,5.5,9.5,5.5,9.5s16.7-3.8,20.1-7.5
		c3.4-3.8-8.7-14.9-8.7-14.9S237.1,360.8,231.9,369.7z"/>
	<g style="opacity:0.8;">
		<path style="fill:#EEC194;" d="M245.3,358.9c0,0,3-0.4,3.7,3.1c0.7,3.6-10.2,7.1-11.6,5.3C236.1,365.5,234.9,363.4,245.3,358.9z"
			/>
		<path style="fill:#EEC194;" d="M246.8,363.1c0,0,3.4-0.4,4.1,3.7c0.8,4.1-11.7,7.9-13.2,5.8C236.1,370.4,234.8,367.9,246.8,363.1z
			"/>
		<path style="fill:#EEC194;" d="M249.2,368.2c0,0,2.9-0.4,3.7,3.1c0.7,3.5-10,7.1-11.4,5.3C240.1,374.8,238.9,372.6,249.2,368.2z"
			/>
		<path style="fill:#EEC194;" d="M251.6,372.8c0,0,2.4-0.4,3,2.6c0.6,2.9-8.3,5.8-9.4,4.3C244.1,378.3,243.1,376.5,251.6,372.8z"/>
	</g>
	<g>
		<path style="fill:#EEC194;" d="M246.2,357.6c0,0,3.1-0.5,3.9,3.2c0.8,3.6-10.6,7.3-12.1,5.5S235.2,362.2,246.2,357.6z"/>
		<path style="fill:#EEC194;" d="M247.6,361.8c0,0,3.5-0.4,4.3,3.7c0.8,4.1-12.2,8.1-13.9,6C236.5,369.4,235.1,366.8,247.6,361.8z"
			/>
		<path style="fill:#EEC194;" d="M250.2,367c0,0,3.1-0.5,3.8,3.1c0.7,3.6-10.5,7.2-12,5.4C240.6,373.8,239.4,371.6,250.2,367z"/>
		<path style="fill:#EEC194;" d="M252.7,371.7c0,0,2.5-0.4,3.1,2.6c0.6,3-8.7,5.9-9.8,4.5C244.8,377.3,243.8,375.5,252.7,371.7z"/>
	</g>
	<path style="fill:#EC008C;" d="M118.9,311.9l-1.4-0.3c-0.1,0-0.1,0-0.2,0l-1,1c-0.1,0.1-0.3,0-0.3-0.1l-0.2-1.4
		c0-0.1,0-0.1-0.1-0.1l-1.2-0.7c-0.1-0.1-0.1-0.2,0-0.3l1.3-0.6c0.1,0,0.1-0.1,0.1-0.1l0.2-1.4c0-0.1,0.2-0.2,0.3-0.1l0.9,1
		c0,0,0.1,0.1,0.1,0.1l1.4-0.2c0.1,0,0.2,0.1,0.2,0.3l-0.7,1.2c0,0,0,0.1,0,0.2l0.6,1.3C119.1,311.8,119,311.9,118.9,311.9z"/>
</g>
</svg>
