<?xml version="1.0" encoding="utf-8"?>
<!-- Generator: Adobe Illustrator 18.0.0, SVG Export Plug-In . SVG Version: 6.00 Build 0)  -->
<!DOCTYPE svg PUBLIC "-//W3C//DTD SVG 1.1//EN" "http://www.w3.org/Graphics/SVG/1.1/DTD/svg11.dtd">
<svg version="1.1" id="Layer_1" xmlns="http://www.w3.org/2000/svg" xmlns:xlink="http://www.w3.org/1999/xlink" x="0px" y="0px"
	 viewBox="0 0 566.9 510.2" enable-background="new 0 0 566.9 510.2" xml:space="preserve">
<g>
	<g>
		<g>
			<g>
				<rect x="182.7" y="298.3" fill="#B09B7C" width="103" height="103"/>
				<rect x="186.1" y="302.2" fill="#BFAF92" width="95.5" height="95.5"/>
				<rect x="224.5" y="302.2" fill="#423F40" width="18.7" height="4.5"/>
				<rect x="224.5" y="338.1" fill="#423F40" width="18.7" height="4.5"/>
				<rect x="224.5" y="370.2" fill="#423F40" width="18.7" height="4.5"/>
				
					<line fill="none" stroke="#B09B7C" stroke-width="1.0108" stroke-miterlimit="10" x1="186.1" y1="338.1" x2="281.6" y2="338.1"/>
				
					<line fill="none" stroke="#B09B7C" stroke-width="1.0108" stroke-miterlimit="10" x1="186.1" y1="370.2" x2="281.6" y2="370.2"/>
			</g>
			<g>
				<rect x="285.7" y="298.3" fill="#B09B7C" width="103" height="103"/>
				<rect x="289.2" y="302.2" fill="#AAD8CB" width="95.5" height="95.5"/>
				<circle fill="#423F40" cx="301.5" cy="314.7" r="2.9"/>
				<rect x="388.8" y="298.3" fill="#B09B7C" width="103" height="103"/>
				<rect x="392.2" y="302.2" fill="#F6F6F7" width="95.5" height="95.5"/>
				<circle fill="#423F40" cx="404.5" cy="314.7" r="2.9"/>
			</g>
			<g>
				<rect x="191.7" y="401.6" fill="#A08765" width="288.6" height="8"/>
				<rect x="205.3" y="409.6" fill="#A08765" width="8.7" height="60.4"/>
				<rect x="220.3" y="409.6" fill="#A08765" width="8.3" height="60.3"/>
				<rect x="440.3" y="409.6" fill="#A08765" width="8.5" height="60.3"/>
				<rect x="458.7" y="409.6" fill="#A08765" width="9" height="60.4"/>
			</g>
		</g>
	</g>
	<g>
		<g>
			<rect x="86.2" y="40.2" fill="#F6F6F7" width="151.3" height="202.3"/>
			<rect x="94.1" y="50.8" fill="#61C5D5" width="135.4" height="181.1"/>
			<g opacity="0.3">
				<path fill="#EDEDED" d="M202.5,136.1h-6.4v39.2h-3.3v-61.1c3.1,0.3,6.4,0.7,9.8,1V136.1z"/>
				<path fill="#EDEDED" d="M150.2,139.1h-7.3V94.3l-26.5,16v10.5h-7.3V94.3c0.5-0.3,0.8-0.5,0.8-0.5c1-3.2,8,4.3,8,4.3
					c1-1.8,10.1-6,10.1-6s0.1-0.1,0.3-0.3c1.5-1.9,10-12,14.6-9.8c5.2,2.3,14.9,9.3,23.1,15.6h-0.7v31.7h-15.1V139.1z"/>
				<path fill="#DFE0E0" d="M229.6,102.3h-9L181,77.8c1.8-1.6,3-2.9,3.3-3c17.1,10.4,32.5,3.2,32.5,3.2s8.3,5.2,12.9,5.1V102.3z"/>
				<path fill="#DFE0E0" d="M192.7,114.3v-0.8l9.8,0.7v1.1C199.2,115,195.9,114.6,192.7,114.3z"/>
				<path fill="#CBCECF" d="M202.5,102.3v11.9l-9.8-0.7V97.6h-3.6c-1.5-3.7-5-6.4-9.1-6.6l-0.3-14.1l1.3,0.8l39.6,24.6H202.5z"/>
				<path fill="#CBCECF" d="M178.6,91c-4,0.3-7.4,3-8.9,6.6H166c-8.2-6.3-17.9-13.3-23.1-15.6c-4.6-2.3-13.1,7.9-14.6,9.8
					c-9.8-4.2-17.5-9-17.5-9c-1.4-2-10.1,0.5-16.6,2.8V73.1c4.1-2.3,7.3-4,7.5-4.1c17.1,10.4,32.5,3.2,32.5,3.2s8.7,5.5,13.2,5.1
					c0,0,21.6-8.8,23.9-5.5l7.8,4.8L178.6,91z"/>
				<path fill="#DFE0E0" d="M110.7,82.7c0,0,7.7,4.9,17.5,9c-0.2,0.2-0.3,0.3-0.3,0.3s-9.1,4.2-10.1,6c0,0-7-7.5-8-4.3
					c0,0-0.3,0.2-0.8,0.5v-7.4h-15v-1.3C100.6,83.2,109.3,80.7,110.7,82.7z"/>
				<polygon fill="#AFAFAF" points="122.9,147.2 122.9,164 120.3,164 120.3,120.9 116.4,120.9 116.4,110.4 142.9,94.3 142.9,139.1 
					150.2,139.1 150.2,129.3 165.2,129.3 165.2,157.6 158.9,157.6 158.9,145.5 144.8,145.5 144.8,152.8 141.3,152.8 141.3,147.2 
									"/>
				<polygon fill="#AFAFAF" points="217.8,136.1 217.8,197.8 212.7,197.8 212.7,175.4 212.5,175.4 212.5,136.1 202.5,136.1 
					202.5,115.3 202.5,114.2 202.5,102.3 220.6,102.3 229.6,102.3 229.6,135.8 229.4,136.1 				"/>
				<polygon fill="#AFAFAF" points="109.1,94.3 109.1,120.9 103,120.9 103,130.8 101.7,130.8 95.7,120.3 94.1,123 94.1,86.8 
					109.1,86.8 				"/>
				<polygon fill="#808080" points="196.1,175.4 196.1,136.1 202.5,136.1 212.5,136.1 212.5,175.4 				"/>
				<path fill="#808080" d="M180,91c4.2,0.2,7.7,2.9,9.1,6.6h3.6v15.9v0.8v61.1h-8.9v19.8h-6.2v-27.5h-28.9v13.2h-2.9v42.3h-2.9
					v-17.4h-1.6v-52.9h3.5v-7.3h14.1v12.1h6.3v-28.3V97.6h0.7h3.8c1.4-3.6,4.8-6.3,8.9-6.6l0.3-14.5l0.3-13.8l0.3,14.2L180,91z"/>
				<polygon fill="#808080" points="101.7,130.8 103,130.8 103,120.9 109.1,120.9 116.4,120.9 120.3,120.9 120.3,164 115,164 
					115,205.7 105.2,205.7 105.2,181 94.1,181 94.1,123 95.7,120.3 				"/>
				<polygon fill="#808080" points="229.4,196.9 223.1,196.9 223.1,213 212.7,213 212.7,197.8 217.8,197.8 217.8,136.1 229.4,136.1 
					229.6,135.8 229.6,172.7 229.4,172.7 				"/>
				<polygon fill="#4D4D4D" points="212.5,175.4 212.7,175.4 212.7,197.8 212.7,213 211.4,213 211.4,202.4 192.9,202.4 192.9,195.1 
					183.8,195.1 183.8,175.4 192.7,175.4 196.1,175.4 				"/>
				<polygon fill="#4D4D4D" points="174.3,224.9 158.8,224.9 158.8,180.8 148.7,180.8 148.7,167.7 177.6,167.7 177.6,195.1 
					174.3,195.1 				"/>
				<polygon fill="#4D4D4D" points="105.2,205.7 102,205.7 102,224.6 94.4,224.6 94.4,217.7 94.1,217.7 94.1,181 105.2,181 				"/>
				<polygon fill="#4D4D4D" points="129.9,224.6 126,224.6 126,205.7 115,205.7 115,164 120.3,164 122.9,164 122.9,147.2 
					141.3,147.2 141.3,152.8 141.3,205.7 129.9,205.7 				"/>
				<rect x="229.4" y="172.7" fill="#4D4D4D" width="0.2" height="24.2"/>
				<rect x="142.9" y="223.1" fill="#4D4D4D" width="2.9" height="1.5"/>
				<polygon fill="#333333" points="94.4,224.6 102,224.6 102,205.7 105.2,205.7 115,205.7 126,205.7 126,224.6 129.9,224.6 
					129.9,205.7 141.3,205.7 142.9,205.7 142.9,223.1 142.9,224.6 145.8,224.6 145.8,223.1 145.8,180.8 148.7,180.8 158.8,180.8 
					158.8,224.9 174.3,224.9 174.3,195.1 177.6,195.1 183.8,195.1 192.9,195.1 192.9,202.4 211.4,202.4 211.4,213 212.7,213 
					223.1,213 223.1,196.9 229.4,196.9 229.6,196.9 229.6,231.6 94.1,231.6 94.1,217.7 94.4,217.7 				"/>
			</g>
			<path fill="#F6F6F7" d="M75.1,247.9c0,3.9,4.1,7,9.3,7h156.9c5.1,0,9.3-3.2,9.3-7l0,0c0-3.9-4.1-7-9.3-7H84.4
				C79.3,240.9,75.1,244,75.1,247.9L75.1,247.9z"/>
			<rect x="160.6" y="46.6" fill="#F6F6F7" width="3.1" height="193.4"/>
			<rect x="89.3" y="141.8" fill="#F6F6F7" width="142.9" height="3.1"/>
		</g>
	</g>
	<path fill="#7FC24E" d="M249,240c0,0-6.2-2.7-14.7-0.2c-8.5,2.5,5.8-15.4-8.8-10.6c-14.6,4.8-9.6-4.6-3.1-16.3
		c6.5-11.8-10.6-10.3-17.3-17c-6.7-6.7-4.8-7.9,4.8-6.5c9.6,1.4,4.5-1.9,1.4-11.9s-1.1-12.8,9.1-9.3c10.2,3.4,6.2,27.2,12.8,24.7
		c6.6-2.5,10,7,11.9,0.4c1.9-6.6,0.6-2.4,8.6-5.7c8-3.3,6.8-16.3,14.8-11.9c8,4.4-17.1,30.4-17.1,30.4c0.9,5.5,5.7,5.4,1.6,12.3
		c-4.1,6.9-0.1,2.9,1.5,7.5S249,240,249,240z"/>
	<path fill="#61A328" d="M235.6,234.4c0.4-0.7,10.9-20.9,3.4-21.6c-5.3-0.5-4.5,2.9-8.8,3.8c-4.4,0.9-1.5-11-7.4-9.3
		c-5.9,1.7-9.1-21-17.6-16.2c-8.5,4.8,1.9,15.7-1,17.9c-2.9,2.3-4,2.4-1.7,5.5c2.4,3.1,2.2,1,1.5,6s2.4,5.7,6.1,7.3
		c3.8,1.6,1.2,0.3,0.6,6.9c-0.6,6.6,16.1,6.1,16.6,5.8C227.9,240.2,235.6,234.4,235.6,234.4z"/>
	<g>
		<polygon fill="#A3794F" points="262.6,242.7 275.5,267 251.9,300.4 220.5,300 198.1,266.9 211.8,239 		"/>
		<path fill="#BA8E63" d="M267.7,229.8l-56.5,0l-17,11.4c0,0,17,27.5,18,27.5c1,0,43.8-30.4,43.8-30.4L267.7,229.8z"/>
		<path fill="#C69B6F" d="M235.4,230l32-0.2l15.2,10.2c0,0-15.2,24.5-16.1,24.5c-0.9,0-39.1-27.2-39.1-27.2L235.4,230z"/>
	</g>
</g>
</svg>
