<?xml version="1.0" encoding="utf-8"?>
<!-- Generator: Adobe Illustrator 18.0.0, SVG Export Plug-In . SVG Version: 6.00 Build 0)  -->
<!DOCTYPE svg PUBLIC "-//W3C//DTD SVG 1.1//EN" "http://www.w3.org/Graphics/SVG/1.1/DTD/svg11.dtd">
<svg version="1.1" id="Layer_1" xmlns="http://www.w3.org/2000/svg" xmlns:xlink="http://www.w3.org/1999/xlink" x="0px" y="0px"
	 viewBox="0 0 469.8 462.5" style="enable-background:new 0 0 469.8 462.5;" xml:space="preserve">
<g>
	
		<rect x="84.7" y="200.1" transform="matrix(0.9252 0.3796 -0.3796 0.9252 130.292 -38.2381)" style="fill:#FFA727;" width="154.7" height="222.3"/>
	
		<rect x="77.9" y="230" transform="matrix(0.9252 0.3796 -0.3796 0.9252 130.362 -38.3511)" style="fill:#D85319;" width="169" height="162.9"/>
	<g>
		<path style="fill:#FFFFFF;" d="M107.2,283.7l-0.4,0.9l-5.2-1.6l0.5-1.3c0.8-2,0.3-3.4-1.4-4.1c-1.7-0.7-3.1-0.1-3.9,1.9l-0.2,0.4
			c-0.8,2-0.6,4.1,1.6,8.4c3.1,5.9,3.7,9.5,2,13.6l-0.7,1.7c-2,4.9-6,6.5-11.2,4.4c-5.1-2.1-6.9-6.1-4.9-11l0.9-2.3l5.2,1.6l-1,2.4
			c-0.9,2.1-0.3,3.6,1.6,4.4c2,0.8,3.4,0.1,4.3-2l0.5-1.1c0.9-2.1,0.6-4.3-1.7-8.6c-3.1-5.9-3.5-9.4-1.9-13.4l0.3-0.7
			c2-4.9,5.9-6.5,10.9-4.5C107.5,274.9,109.2,278.9,107.2,283.7z"/>
		<path style="fill:#FFFFFF;" d="M117.1,285l-4,9.7l7.6,3.1l-2,4.8l-7.6-3.1l-4.2,10.2l9.4,3.8l-2,4.8l-14.6-6l14-34.2l14.6,6
			l-2,4.8L117.1,285z"/>
		<path style="fill:#FFFFFF;" d="M135.5,326.9l9.7-23.7l-0.1,0l-12,17.1l-3.1-1.3l3.4-20.6l-0.1,0l-9.7,23.7l-4.9-2l14-34.2l6.8,2.8
			l-3.5,20l0.1,0l11.5-16.7l7,2.9l-14,34.2L135.5,326.9z"/>
		<path style="fill:#FFFFFF;" d="M146.3,331.3l14-34.2l5.2,2.1l-14,34.2L146.3,331.3z"/>
		<path style="fill:#FFFFFF;" d="M172.9,336.5l-2,4.9l-13.8-5.7l14-34.2l5.2,2.1l-12,29.3L172.9,336.5z"/>
		<path style="fill:#FFFFFF;" d="M190,343.6l-2,4.9l-13.8-5.7l14-34.2l5.2,2.1l-12,29.3L190,343.6z"/>
		<path style="fill:#FFFFFF;" d="M202.6,354.5l2.1-8.2l-5.7-2.3l-4.3,7.3l-5.2-2.1l19.9-31.8l6.6,2.7l-8.1,36.6L202.6,354.5z
			 M201.6,339.5l4.3,1.8l3.8-15.3l-0.1-0.1L201.6,339.5z"/>
		<path style="fill:#FFFFFF;" d="M236.5,336.8l-0.4,0.9l-5.2-1.6l0.5-1.3c0.8-2,0.3-3.4-1.4-4.1c-1.7-0.7-3.1-0.1-3.9,1.9l-0.2,0.4
			c-0.8,2-0.6,4.1,1.6,8.4c3.1,5.9,3.7,9.5,2,13.6l-0.7,1.7c-2,4.9-6,6.5-11.2,4.4c-5.1-2.1-6.9-6.1-4.9-11l0.9-2.3l5.2,1.6l-1,2.4
			c-0.9,2.1-0.3,3.6,1.6,4.4c2,0.8,3.4,0.1,4.3-2l0.5-1.1c0.9-2.1,0.6-4.3-1.7-8.6c-3.1-5.9-3.5-9.4-1.9-13.4l0.3-0.7
			c2-4.9,5.9-6.5,10.9-4.5C236.9,328,238.5,331.9,236.5,336.8z"/>
	</g>
</g>
<path style="fill:#232222;" d="M228.6,117.6c-14.7,20.8-5.8,33.8,9.1,44.3c14.9,10.5,30.1,14.5,44.8-6.3s28-63.1,13.1-73.6
	S243.3,96.8,228.6,117.6z"/>
<polygon style="fill:#4F4646;" points="289,83.1 246.9,145.1 294.6,85.9 "/>
<path style="fill:#232222;" d="M328.3,199.9c13.8,9.7,22.4,3.8,29.4-6c7-9.9,9.6-20-4.1-29.7s-41.8-18.5-48.8-8.7
	S314.5,190.2,328.3,199.9z"/>
<polygon style="fill:#4F4646;" points="305.5,159.8 346.5,187.7 307.3,156.1 "/>
<path style="fill:#232222;" d="M332.8,92.1c13.8,9.7,22.4,3.8,29.4-6s9.6-20-4.1-29.7s-41.8-18.5-48.8-8.7S319,82.4,332.8,92.1z"/>
<polygon style="fill:#4F4646;" points="309.9,52.1 351,80 311.8,48.4 "/>
</svg>
